<svg width="21" height="22" viewBox="0 0 21 22" fill="none" xmlns="http://www.w3.org/2000/svg">
<path d="M9.71 16.7396C6.53 16.5833 4 13.8542 4 10.5C4 7.05209 6.69 4.25001 10 4.25001C13.22 4.25001 15.84 6.88543 15.99 10.1979L13.89 9.54168C13.48 7.69793 11.89 6.33334 10 6.33334C7.79 6.33334 6 8.19793 6 10.5C6 12.4688 7.31 14.125 9.08 14.5521L9.71 16.7396ZM20 10.5C20 10.8125 19.99 11.125 19.96 11.4375L17.99 10.8229C18 10.7188 18 10.6042 18 10.5C18 5.89584 14.42 2.16668 10 2.16668C5.58 2.16668 2 5.89584 2 10.5C2 15.1042 5.58 18.8333 10 18.8333C10.1 18.8333 10.21 18.8333 10.31 18.8229L10.9 20.875C10.6 20.9063 10.3 20.9167 10 20.9167C4.48 20.9167 0 16.25 0 10.5C0 4.75001 4.48 0.0833435 10 0.0833435C15.52 0.0833435 20 4.75001 20 10.5ZM16.23 14.9375L20 13.625L10 10.5L13 20.9167L14.26 16.9896L18.53 21.4375L20.51 19.375L16.23 14.9375Z" fill="white"/>
</svg>
