<svg width="118" height="118" viewBox="0 0 118 118" fill="none" xmlns="http://www.w3.org/2000/svg">
<path d="M98.4595 105.69C95.8772 107.57 27.4183 108.319 24.9347 105.69C23.7228 104.406 21.7722 81.7616 20.8627 62.4735C20.1981 48.3397 20.0911 36.0063 21.2433 35.1956C21.7063 34.8685 22.9697 34.5701 24.7516 34.3088C33.4224 33.0392 54.4101 32.6277 55.8916 33.8438C58.2949 35.8109 62.9801 40.9117 64.443 41.5907C65.7044 42.1792 82.5233 41.5681 90.9287 41.9611C93.3505 42.0763 95.0727 42.2718 95.5254 42.6051C96.3443 43.208 97.2414 51.3006 97.9534 61.5044C99.225 79.7122 99.8999 104.638 98.4595 105.69Z" fill="#5BA6D8"/>
<path opacity="0.05" d="M98.4595 105.689C95.8772 107.57 27.4182 108.319 24.9347 105.689C23.7228 104.405 21.7721 81.7614 20.8627 62.4733C27.9573 64.8417 35.8401 65.4301 43.3915 65.3705C53.9882 65.2861 64.8566 64.1071 74.3093 59.3169C81.5727 55.6359 87.8608 49.5453 90.9286 41.9609C93.3504 42.0762 95.0727 42.2716 95.5254 42.605C96.3443 43.2078 97.2414 51.3005 97.9533 61.5042C99.225 79.712 99.8998 104.638 98.4595 105.689Z" fill="url(#paint0_linear_29_2424)"/>
<path d="M53.2013 30.0405C52.9739 30.0405 52.7596 29.9023 52.6734 29.6773C52.6069 29.504 52.5389 29.3327 52.4694 29.1634C52.3509 28.8746 52.4889 28.5443 52.7777 28.426C53.0668 28.307 53.3966 28.4456 53.5152 28.7342C53.588 28.9119 53.6594 29.0912 53.7289 29.2729C53.8406 29.5643 53.6948 29.8913 53.4034 30.003C53.3368 30.0284 53.2685 30.0405 53.2013 30.0405Z" fill="#FFCC4D"/>
<path d="M12.5677 59.4991C12.4043 59.4991 12.2421 59.4287 12.1304 59.2922C11.8959 59.0063 11.6592 58.701 11.427 58.3846C11.2422 58.1329 11.2965 57.7792 11.5481 57.5944C11.7999 57.4097 12.1536 57.4642 12.3381 57.7157C12.5585 58.0159 12.7827 58.3051 13.0044 58.5756C13.2024 58.8169 13.1671 59.173 12.9258 59.3708C12.8207 59.4572 12.6938 59.4991 12.5677 59.4991ZM10.0855 55.786C9.88628 55.786 9.69311 55.6805 9.59 55.4937C9.40842 55.1643 9.2298 54.8248 9.05926 54.4848C8.91929 54.2057 9.032 53.8661 9.31096 53.7262C9.59012 53.5862 9.92968 53.699 10.0696 53.9779C10.2337 54.3048 10.4054 54.6314 10.58 54.948C10.7307 55.2213 10.6312 55.565 10.3579 55.7158C10.2714 55.7635 10.1778 55.786 10.0855 55.786ZM8.23199 51.7209C8.00182 51.7209 7.78557 51.5791 7.70146 51.3506C7.57031 50.9941 7.44469 50.632 7.32801 50.2746C7.23132 49.9778 7.39336 49.6588 7.69008 49.5619C7.98726 49.465 8.30595 49.6274 8.40276 49.924C8.51502 50.2684 8.63602 50.617 8.7623 50.9603C8.87004 51.2532 8.72004 51.578 8.42704 51.686C8.36268 51.7096 8.29667 51.7209 8.23199 51.7209ZM7.00986 47.4239C6.74649 47.4239 6.51067 47.2386 6.45649 46.9706C6.3812 46.5988 6.31265 46.2213 6.25261 45.8486C6.20293 45.5404 6.41257 45.2503 6.72076 45.2008C7.02898 45.1496 7.31895 45.3607 7.36863 45.6689C7.42626 46.0268 7.49215 46.3893 7.56434 46.7463C7.62627 47.0523 7.42845 47.3506 7.12246 47.4124C7.0847 47.4201 7.04696 47.4239 7.00986 47.4239ZM6.48155 42.9891C6.17865 42.9891 5.92794 42.7491 5.91702 42.4442C5.90576 42.1283 5.90002 41.8086 5.90002 41.4933L5.90069 41.3024C5.9029 40.9915 6.15557 40.7412 6.46576 40.7412H6.46985C6.78203 40.7434 7.03327 40.9982 7.03105 41.3103L7.03039 41.4933C7.03039 41.7951 7.03592 42.1014 7.04672 42.4036C7.05786 42.7156 6.81403 42.9776 6.50206 42.9887C6.49522 42.9889 6.48828 42.9891 6.48155 42.9891ZM6.71005 38.5301C6.68399 38.5301 6.65761 38.5283 6.63101 38.5245C6.32192 38.4813 6.10645 38.1956 6.14959 37.8865C6.20236 37.5101 6.26396 37.1308 6.33294 36.7588C6.3898 36.4519 6.68498 36.2501 6.99164 36.3062C7.29863 36.3631 7.50131 36.6581 7.44434 36.965C7.37845 37.3204 7.31949 37.6832 7.26915 38.0432C7.22953 38.3258 6.98744 38.5301 6.71005 38.5301ZM7.71779 34.1812C7.6595 34.1812 7.60022 34.1721 7.54183 34.1529C7.24511 34.0558 7.08338 33.7366 7.18054 33.4398C7.29877 33.0791 7.42614 32.7166 7.55939 32.3627C7.66934 32.0706 7.99488 31.9224 8.28752 32.0328C8.57962 32.1428 8.7273 32.4689 8.61735 32.761C8.48984 33.0996 8.36788 33.4465 8.25483 33.7917C8.17679 34.03 7.95556 34.1812 7.71779 34.1812ZM9.46447 30.0725C9.3755 30.0725 9.2853 30.0513 9.20119 30.0069C8.92512 29.8615 8.81937 29.5195 8.96496 29.2435C9.14026 28.911 9.32604 28.5754 9.51689 28.246C9.67352 27.976 10.0192 27.8839 10.2893 28.0405C10.5594 28.197 10.6515 28.543 10.4949 28.813C10.3115 29.1294 10.1331 29.4517 9.96484 29.7707C9.8635 29.9628 9.66736 30.0725 9.46447 30.0725ZM51.4863 26.52C51.2953 26.52 51.109 26.4233 51.0027 26.2482C50.8154 25.9398 50.6172 25.6331 50.4135 25.3364C50.2369 25.079 50.3022 24.7273 50.5596 24.5504C50.8171 24.3742 51.1689 24.4394 51.3454 24.6966C51.561 25.0105 51.7706 25.3353 51.9688 25.6614C52.1308 25.9283 52.046 26.2758 51.7791 26.4378C51.6874 26.4935 51.5862 26.52 51.4863 26.52ZM11.848 26.2961C11.7312 26.2961 11.6134 26.2601 11.5123 26.1853C11.2614 25.9996 11.2084 25.6457 11.3941 25.3949C11.6162 25.0947 11.8492 24.7911 12.0866 24.4926C12.2811 24.2484 12.6368 24.208 12.8808 24.4023C13.1251 24.5966 13.1655 24.9523 12.9711 25.1964C12.7419 25.4846 12.5171 25.7775 12.3028 26.067C12.192 26.2169 12.0211 26.2961 11.848 26.2961ZM48.751 22.9981C48.6049 22.9981 48.459 22.9418 48.3484 22.8297C48.0959 22.5736 47.8325 22.3217 47.5654 22.081C47.3335 21.8722 47.3147 21.515 47.5236 21.2829C47.7323 21.0511 48.0897 21.0321 48.3218 21.2412C48.6055 21.4966 48.8853 21.7642 49.1536 22.0362C49.3727 22.2585 49.37 22.6164 49.1477 22.8354C49.0377 22.9441 48.8942 22.9981 48.751 22.9981ZM14.8096 22.9595C14.6521 22.9595 14.4955 22.8942 14.3836 22.7661C14.1784 22.531 14.2025 22.174 14.4376 21.9687C14.7206 21.7214 15.021 21.4759 15.3304 21.2383C15.5779 21.048 15.933 21.0953 16.1229 21.3428C16.3129 21.5903 16.2662 21.945 16.0186 22.1351C15.7281 22.3581 15.4462 22.5886 15.1812 22.82C15.074 22.9136 14.9415 22.9595 14.8096 22.9595ZM18.4901 20.4356C18.2897 20.4356 18.0958 20.329 17.9932 20.1408C17.8439 19.8666 17.945 19.5233 18.2191 19.3741C18.5467 19.1955 18.8885 19.0193 19.2349 18.85C19.515 18.7126 19.8539 18.8292 19.9908 19.1096C20.1279 19.39 20.0117 19.7284 19.7312 19.8655C19.3998 20.0276 19.0729 20.196 18.76 20.3667C18.6741 20.4135 18.5814 20.4356 18.4901 20.4356ZM45.2644 20.2168C45.1627 20.2168 45.0597 20.1894 44.9668 20.1318C44.6613 19.9419 44.3457 19.7582 44.0287 19.5856C43.7545 19.4363 43.6534 19.093 43.8028 18.8188C43.9522 18.5451 44.2952 18.4435 44.5694 18.593C44.9051 18.7758 45.2395 18.9705 45.5632 19.1714C45.8283 19.3361 45.9098 19.6845 45.7452 19.9496C45.6381 20.1221 45.4534 20.2168 45.2644 20.2168ZM22.5788 18.6385C22.3449 18.6385 22.1262 18.4921 22.0449 18.2587C21.9424 17.964 22.0983 17.6418 22.3931 17.5392C22.7496 17.4151 23.1136 17.2959 23.475 17.1848C23.7732 17.093 24.0897 17.2606 24.1814 17.5591C24.2731 17.8573 24.1056 18.1735 23.8073 18.2653C23.4589 18.3724 23.1081 18.4874 22.7645 18.6069C22.703 18.6283 22.6404 18.6385 22.5788 18.6385ZM41.2378 18.2969C41.1755 18.2969 41.1122 18.2865 41.0501 18.2647C40.713 18.1459 40.3643 18.0329 40.0136 17.9282C39.7144 17.8392 39.5442 17.5244 39.6333 17.2253C39.7222 16.9261 40.0367 16.7552 40.3363 16.8451C40.7046 16.9546 41.071 17.0736 41.4254 17.1983C41.72 17.3021 41.8745 17.6249 41.7708 17.9192C41.689 18.1517 41.4708 18.2969 41.2378 18.2969ZM26.8932 17.48C26.628 17.48 26.3913 17.2924 26.3389 17.0221C26.2797 16.7157 26.48 16.4192 26.7865 16.36C27.1563 16.2885 27.5338 16.2225 27.9087 16.1637C28.2166 16.115 28.5061 16.3262 28.5544 16.6346C28.6028 16.9431 28.3918 17.2323 28.0835 17.2804C27.7219 17.3371 27.3577 17.4007 27.0013 17.4696C26.965 17.4767 26.9289 17.48 26.8932 17.48ZM36.9056 17.2237C36.8772 17.2237 36.8484 17.2217 36.8195 17.2173C36.4632 17.1628 36.0983 17.1149 35.7354 17.0751C35.4251 17.0411 35.2011 16.7618 35.2351 16.4517C35.2692 16.1412 35.5462 15.9185 35.8585 15.9514C36.2374 15.9929 36.6182 16.043 36.9904 16.0998C37.2989 16.147 37.5108 16.4353 37.4636 16.744C37.4209 17.0237 37.18 17.2237 36.9056 17.2237ZM31.3313 16.9468C31.0315 16.9468 30.7816 16.7111 30.7672 16.4084C30.7524 16.0966 30.9932 15.8319 31.3049 15.8171C31.6823 15.7992 32.0655 15.7882 32.4439 15.7847H32.4494C32.759 15.7847 33.0115 16.0341 33.0145 16.3446C33.0175 16.6567 32.7668 16.9119 32.4547 16.915C32.0904 16.9183 31.7216 16.9289 31.3585 16.9462C31.3494 16.9466 31.3403 16.9468 31.3313 16.9468Z" fill="#FFCC4D"/>
<path d="M15.4837 62.0844C15.407 62.0844 15.3292 62.0687 15.2546 62.0356C15.0736 61.9553 14.8815 61.8499 14.6838 61.723C14.4212 61.5541 14.3451 61.2044 14.5139 60.9419C14.6825 60.6792 15.032 60.6032 15.2949 60.7719C15.4441 60.8679 15.585 60.9454 15.7134 61.0024C15.9986 61.1291 16.1272 61.4632 16.0006 61.7484C15.907 61.959 15.7003 62.0844 15.4837 62.0844Z" fill="#FFCC4D"/>
<path d="M30.8078 62.672C25.6119 62.1566 21.3349 59.9346 18.2743 56.6255C14.4311 52.4723 12.5086 46.6081 13.0855 40.2717C14.0935 29.2707 22.7691 22.5889 34.4571 22.9924C39.9835 23.1799 44.5502 25.6215 47.6756 29.4747C50.6992 33.1997 52.3794 38.2424 52.2926 43.8564C52.1319 54.3287 42.0924 63.7894 30.8078 62.672Z" fill="#FFCC4D"/>
<path opacity="0.05" d="M30.8078 62.672C25.6119 62.1565 21.3349 59.9345 18.2743 56.6254C24.2076 57.4583 30.4279 56.3521 35.5808 53.2794C39.3135 51.0535 42.4124 47.8352 44.623 44.1016C46.6014 40.7629 48.156 36.6939 48.3239 32.7735C48.3567 32.0189 48.0241 30.7911 47.6756 29.4746C50.6992 33.1996 52.3794 38.2423 52.2925 43.8564C52.1319 54.3287 42.0924 63.7893 30.8078 62.672Z" fill="url(#paint1_linear_29_2424)"/>
<path opacity="0.2" d="M27.4401 27.669C23.6977 28.5226 20.443 31.2823 18.9889 34.8348C17.8718 37.5641 17.944 41.0478 20.0715 43.0901C21.762 44.713 24.3889 45.0525 26.6584 44.4685C28.9279 43.8846 30.9067 42.5083 32.735 41.0424C34.3506 39.7469 35.9131 38.3372 37.035 36.5965C38.5899 34.1841 39.497 31.2291 36.8755 29.4595C34.1509 27.6203 30.6497 26.9369 27.4401 27.669Z" fill="url(#paint2_linear_29_2424)"/>
<path opacity="0.08" d="M42.9747 36.7954C43.1166 35.9385 41.3253 34.3078 40.5394 34.3601C40.1924 34.3832 37.0216 37.4026 33.5719 40.8341C30.1499 37.4642 27.0222 34.5085 26.6831 34.4242C25.9061 34.2309 23.82 36.0817 24.2478 36.8595C24.4343 37.1983 27.3805 40.2998 30.7167 43.7037C27.34 47.1323 24.3749 50.2695 24.2904 50.6092C24.0971 51.3862 25.9479 53.4723 26.7256 53.0444C27.0643 52.8582 30.1613 49.9162 33.5621 46.5832C36.9808 50.0134 40.118 53.0458 40.4969 53.1085C41.3538 53.2504 42.9845 51.4592 42.9321 50.6733C42.909 50.3265 39.8942 47.1603 36.466 43.7137C39.8894 40.3013 42.912 37.1737 42.9747 36.7954Z" fill="url(#paint3_linear_29_2424)"/>
<path d="M41.577 37.0659C41.7188 36.209 39.9276 34.5783 39.1417 34.6306C38.7947 34.6537 35.6239 37.6731 32.1742 41.1046C28.7522 37.7347 25.6245 34.779 25.2854 34.6947C24.5084 34.5014 22.4223 36.3522 22.8501 37.13C23.0365 37.4688 25.9828 40.5703 29.319 43.9742C25.9423 47.4028 22.9772 50.54 22.8927 50.8797C22.6994 51.6567 24.5502 53.7428 25.3279 53.315C25.6666 53.1287 28.7636 50.1868 32.1644 46.8537C35.5831 50.2839 38.7203 53.3163 39.0992 53.379C39.9561 53.5209 41.5868 51.7297 41.5344 50.9438C41.5113 50.597 38.4965 47.4308 35.0683 43.9842C38.4917 40.5719 41.5143 37.4442 41.577 37.0659Z" fill="#EBF3FA"/>
<path d="M99.8175 105.871C96.7826 107.846 27.2042 107.19 24.9347 105.77C24.3935 105.43 24.838 101.731 25.8215 96.5105C28.4347 82.6566 34.8503 58.0886 36.768 57.175C39.1178 56.0577 66.8196 57.0227 68.6199 56.4569C70.2414 55.9466 75.9903 52.1153 78.8134 50.64C80.2187 49.9055 93.4657 49.1606 102.774 49.7326C107.375 50.0145 111.015 50.6194 111.787 51.7038C114.157 55.0392 102.381 104.2 99.8175 105.871Z" fill="#75C4EF"/>
<path opacity="0.05" d="M99.8175 105.871C96.7826 107.846 27.2042 107.19 24.9347 105.77C24.3935 105.431 24.838 101.731 25.8215 96.5108C34.2907 98.2844 42.9224 99.1363 51.5376 98.5334C65.1097 97.5828 78.6837 92.7967 88.6776 83.5663C95.4163 77.3441 100.328 69.021 102.217 60.0231C102.688 57.772 102.972 55.4819 103.04 53.1835C103.066 52.2267 102.85 50.9531 102.774 49.7329C107.375 50.0148 111.015 50.6197 111.787 51.7041C114.157 55.0395 102.381 104.2 99.8175 105.871Z" fill="url(#paint4_linear_29_2424)"/>
<path opacity="0.15" d="M36.6525 75.8268C37.5077 72.6097 38.9873 69.3377 41.7777 67.5227C44.4147 65.8075 47.7439 65.6846 50.8888 65.616C60.8058 65.3994 70.7228 65.1828 80.6398 64.9663C81.3795 64.9501 82.1581 64.9429 82.8079 65.297C83.9402 65.9141 84.2765 67.4678 83.8885 68.6976C83.5006 69.9274 82.567 70.8983 81.6359 71.7904C71.5984 81.4066 58.1972 87.4408 44.3437 88.5821C41.9326 88.7808 35.5528 89.2554 34.3534 86.3889C33.4437 84.2147 36.0559 78.0711 36.6525 75.8268Z" fill="url(#paint5_linear_29_2424)"/>
<path d="M67.1603 17.5592C67.3968 16.5761 68.8736 16.7594 69.0213 17.5854C69.0532 17.7637 69.1766 19.9519 69.1365 20.1168C68.8663 21.2293 67.2456 21.0485 67.0672 20.1253C67.0443 20.0066 67.126 17.7017 67.1603 17.5592Z" fill="#FF8383"/>
<path d="M69.0768 13.9341C68.8402 14.9172 67.3634 14.7338 67.2157 13.9078C67.1839 13.7295 67.0605 11.5413 67.1005 11.3764C67.3707 10.2639 68.9915 10.4447 69.1698 11.3679C69.1927 11.4866 69.1111 13.7915 69.0768 13.9341Z" fill="#FF8383"/>
<path d="M66.3059 14.7885C67.289 15.025 67.1057 16.5018 66.2796 16.6495C66.1013 16.6814 63.9131 16.8048 63.7483 16.7647C62.6358 16.4945 62.8165 14.8738 63.7397 14.6954C63.8584 14.6725 66.1633 14.7541 66.3059 14.7885Z" fill="#FF8383"/>
<path d="M69.9312 16.7049C68.9481 16.4683 69.1314 14.9915 69.9574 14.8439C70.1357 14.812 72.3239 14.6886 72.4888 14.7286C73.6013 14.9988 73.4205 16.6196 72.4973 16.7979C72.3786 16.8208 70.0737 16.7392 69.9312 16.7049Z" fill="#FF8383"/>
<path d="M87.4668 29.8971C87.7034 28.914 89.1801 29.0973 89.3278 29.9233C89.3597 30.1016 89.4831 32.2898 89.4431 32.4547C89.1729 33.5672 87.5521 33.3864 87.3737 32.4632C87.3508 32.3445 87.4325 30.0396 87.4668 29.8971Z" fill="#FF8383"/>
<path d="M89.3832 26.2719C89.1467 27.255 87.6699 27.0717 87.5222 26.2457C87.4903 26.0674 87.3669 23.8792 87.407 23.7143C87.6772 22.6018 89.2979 22.7826 89.4763 23.7058C89.4992 23.8245 89.4175 26.1294 89.3832 26.2719Z" fill="#FF8383"/>
<path d="M86.6124 27.1263C87.5955 27.3629 87.4122 28.8397 86.5862 28.9874C86.4078 29.0193 84.2196 29.1427 84.0548 29.1026C82.9423 28.8324 83.123 27.2117 84.0463 27.0333C84.165 27.0104 86.4698 27.092 86.6124 27.1263Z" fill="#FF8383"/>
<path d="M90.2376 29.0428C89.2545 28.8062 89.4378 27.3294 90.2639 27.1817C90.4422 27.1499 92.6304 27.0265 92.7953 27.0665C93.9077 27.3367 93.727 28.9575 92.8038 29.1358C92.6851 29.1587 90.3802 29.0771 90.2376 29.0428Z" fill="#FF8383"/>
<defs>
<linearGradient id="paint0_linear_29_2424" x1="20.8626" y1="74.6766" x2="99.2698" y2="74.6766" gradientUnits="userSpaceOnUse">
<stop/>
<stop offset="1"/>
</linearGradient>
<linearGradient id="paint1_linear_29_2424" x1="22.3589" y1="41.6325" x2="51.3007" y2="49.5172" gradientUnits="userSpaceOnUse">
<stop/>
<stop offset="1"/>
</linearGradient>
<linearGradient id="paint2_linear_29_2424" x1="19.2046" y1="33.7701" x2="37.0298" y2="38.6263" gradientUnits="userSpaceOnUse">
<stop offset="0.0386" stop-color="white"/>
<stop offset="1" stop-color="white"/>
</linearGradient>
<linearGradient id="paint3_linear_29_2424" x1="24.1906" y1="43.7376" x2="42.9826" y2="43.7376" gradientUnits="userSpaceOnUse">
<stop/>
<stop offset="1"/>
</linearGradient>
<linearGradient id="paint4_linear_29_2424" x1="24.7016" y1="78.421" x2="112.1" y2="78.421" gradientUnits="userSpaceOnUse">
<stop/>
<stop offset="1"/>
</linearGradient>
<linearGradient id="paint5_linear_29_2424" x1="34.1629" y1="76.8498" x2="84.043" y2="76.8498" gradientUnits="userSpaceOnUse">
<stop offset="0.0386" stop-color="white"/>
<stop offset="1" stop-color="white"/>
</linearGradient>
</defs>
</svg>
