<svg width="58" height="55" viewBox="0 0 58 55" fill="none" xmlns="http://www.w3.org/2000/svg">
<path d="M5.74992 54.25C4.32909 54.25 3.11277 53.7441 2.10096 52.7323C1.08915 51.7205 0.583252 50.5042 0.583252 49.0833V18.0833C0.583252 17.3514 0.830821 16.7378 1.32596 16.2427C1.8211 15.7476 2.43464 15.5 3.16659 15.5C3.89853 15.5 4.51207 15.7476 5.00721 16.2427C5.50235 16.7378 5.74992 17.3514 5.74992 18.0833V49.0833H41.9166C42.6485 49.0833 43.2621 49.3309 43.7572 49.826C44.2523 50.3212 44.4999 50.9347 44.4999 51.6667C44.4999 52.3986 44.2523 53.0121 43.7572 53.5073C43.2621 54.0024 42.6485 54.25 41.9166 54.25H5.74992ZM16.0833 43.9167C14.6624 43.9167 13.4461 43.4108 12.4343 42.399C11.4225 41.3871 10.9166 40.1708 10.9166 38.75V16.7917C10.9166 15.8875 11.1211 15.0264 11.5301 14.2083C11.9392 13.3903 12.5527 12.7444 13.3708 12.2708L34.1666 0L40.4958 3.74583L36.6208 7.49167L34.1666 6.07083L16.5999 16.4042L34.1666 26.7375L51.7332 16.4042L48.2458 14.3375L51.9916 10.5917L54.9624 12.2708C55.7805 12.7444 56.394 13.3903 56.803 14.2083C57.2121 15.0264 57.4166 15.8875 57.4166 16.7917V38.75C57.4166 40.1708 56.9107 41.3871 55.8989 42.399C54.8871 43.4108 53.6707 43.9167 52.2499 43.9167H16.0833ZM33.7791 16.0167L43.9832 5.8125C44.4569 5.33889 45.0596 5.10208 45.7916 5.10208C46.5235 5.10208 47.1263 5.33889 47.5999 5.8125C48.0735 6.28611 48.3103 6.88889 48.3103 7.62083C48.3103 8.35278 48.0735 8.95555 47.5999 9.42917L35.5874 21.4417C35.0708 21.9583 34.468 22.2167 33.7791 22.2167C33.0902 22.2167 32.4874 21.9583 31.9708 21.4417L28.3541 17.825C27.8805 17.3514 27.6437 16.7486 27.6437 16.0167C27.6437 15.2847 27.8805 14.6819 28.3541 14.2083C28.8277 13.7347 29.4305 13.4979 30.1624 13.4979C30.8944 13.4979 31.4971 13.7347 31.9708 14.2083L33.7791 16.0167Z" fill="#87C752"/>
</svg>
