<svg width="56" height="56" viewBox="0 0 56 56" fill="none" xmlns="http://www.w3.org/2000/svg">
<path d="M38.2198 53.0836H7.55975C5.34308 53.0836 3.28976 52.057 1.95976 50.2603C0.606426 48.4403 0.209779 46.1535 0.886446 43.9835L10.7098 12.4135C11.5964 9.47345 14.3031 7.4668 17.3831 7.4668H46.0831C48.9064 7.4668 51.4498 9.147 52.5231 11.7603C53.1065 13.1137 53.2231 14.6537 52.8731 16.1704L45.0098 47.7402C44.2631 50.8902 41.4631 53.0836 38.2198 53.0836ZM17.4064 10.9902C15.8897 10.9902 14.5131 11.9936 14.0698 13.4636L4.24645 45.0337C3.91979 46.1304 4.10643 47.2737 4.80643 48.207C5.45976 49.0937 6.48643 49.6069 7.5831 49.6069H38.2431C39.8531 49.6069 41.2531 48.5102 41.6264 46.9469L49.4897 15.3535C49.6764 14.5835 49.6298 13.8136 49.3265 13.1369C48.7665 11.8069 47.5298 10.9668 46.1065 10.9668H17.4064V10.9902Z" fill="#87C752"/>
<path d="M48.4866 53.0831H37.3333C36.3766 53.0831 35.5833 52.2898 35.5833 51.3331C35.5833 50.3764 36.3766 49.5831 37.3333 49.5831H48.4866C49.4433 49.5831 50.3299 49.1865 50.9833 48.4865C51.6366 47.7865 51.9632 46.8532 51.8932 45.8965L49.5833 14.1165C49.5133 13.1599 50.2366 12.3198 51.1933 12.2498C52.1499 12.2031 52.9899 12.903 53.0599 13.8596L55.3699 45.6399C55.5099 47.5532 54.8333 49.4665 53.5266 50.8665C52.2433 52.2899 50.3999 53.0831 48.4866 53.0831Z" fill="#87C752"/>
<path d="M22.586 16.6366C22.446 16.6366 22.3061 16.6133 22.1661 16.5899C21.2327 16.3566 20.6494 15.4232 20.8828 14.4665L23.3094 4.38665C23.5427 3.45332 24.476 2.86987 25.4327 3.1032C26.366 3.33654 26.9494 4.26995 26.7161 5.22662L24.2894 15.3068C24.1027 16.1001 23.3794 16.6366 22.586 16.6366Z" fill="#87C752"/>
<path d="M38.2199 16.6599C38.1032 16.6599 37.9632 16.6598 37.8465 16.6132C36.9132 16.4032 36.3066 15.4698 36.4932 14.5365L38.6865 4.40989C38.8965 3.45322 39.8299 2.86999 40.7632 3.05666C41.6965 3.24332 42.3032 4.19974 42.1165 5.13307L39.9231 15.2599C39.7598 16.0999 39.0365 16.6599 38.2199 16.6599Z" fill="#87C752"/>
<path d="M36.6337 29.75H17.967C17.0104 29.75 16.217 28.9567 16.217 28C16.217 27.0433 17.0104 26.25 17.967 26.25H36.6337C37.5904 26.25 38.3837 27.0433 38.3837 28C38.3837 28.9567 37.5904 29.75 36.6337 29.75Z" fill="#87C752"/>
<path d="M34.3005 39.0835H15.6338C14.6771 39.0835 13.8838 38.2902 13.8838 37.3335C13.8838 36.3768 14.6771 35.5835 15.6338 35.5835H34.3005C35.2571 35.5835 36.0505 36.3768 36.0505 37.3335C36.0505 38.2902 35.2571 39.0835 34.3005 39.0835Z" fill="#87C752"/>
</svg>
