<svg width="139" height="138" viewBox="0 0 139 138" fill="none" xmlns="http://www.w3.org/2000/svg">
<path d="M114.057 50.81C114.03 81.2945 111.941 115.876 110.409 119.738C107.924 126.003 33.9867 124.254 28.3403 119.957C27.2237 119.109 26.3451 114.565 25.68 107.769C24.7084 97.804 24.2047 82.9997 24.1172 67.9353L38.615 62.642L50.2937 75.9136L62.049 67.9764L78.1151 73.7569L63.4367 58.4298L51.4815 64.3252L40.9934 51.6092L24.1418 55.3343C24.1583 53.5579 24.1829 51.7953 24.2103 50.0574C24.5414 30.1321 25.6198 13.1464 27.3167 10.872C30.2891 6.89244 61.8054 6.07954 89.1205 7.65056L90.9105 9.34203L113.718 30.8876C113.756 31.8537 113.789 32.8363 113.822 33.8326C113.989 39.1697 114.063 44.9118 114.057 50.81Z" fill="#BCD9EE"/>
<g opacity="0.03">
<path d="M37.4975 47.5865L24.2035 50.5252C24.179 52.1122 24.1568 53.7163 24.1418 55.3343L40.8429 51.6425L37.4975 47.5865Z" fill="url(#paint0_linear_29_3945)"/>
<path d="M48.1123 60.2402L51.4817 64.3253L63.4368 58.4298L78.1152 73.7569L61.818 53.4815L48.1123 60.2402Z" fill="url(#paint1_linear_29_3945)"/>
<path d="M113.822 33.8325C113.789 32.8363 113.756 31.8537 113.718 30.8875L110.249 27.6111C110.276 28.3366 110.301 29.068 110.326 29.8099C110.493 35.147 110.567 40.8892 110.561 46.7873C110.534 77.2719 108.446 111.854 106.913 115.716C104.602 121.54 40.5349 120.438 26.9998 116.801C27.4017 118.489 27.8479 119.583 28.3404 119.957C33.9868 124.254 107.924 126.003 110.409 119.738C111.941 115.876 114.03 81.2945 114.057 50.81C114.063 44.9118 113.989 39.1696 113.822 33.8325Z" fill="url(#paint2_linear_29_3945)"/>
</g>
<path opacity="0.03" d="M113.822 33.8325C108.238 34.3307 100.605 34.1993 97.8021 33.7805C96.0094 33.5123 94.0497 33.1127 92.944 31.7606C92.0381 30.6549 91.9313 29.1742 91.8601 27.792C91.6959 24.5979 91.5317 21.4039 91.3675 18.2071C91.2197 15.3332 91.0719 12.4594 90.9241 9.58285C90.9186 9.50074 90.9159 9.42139 90.9104 9.34198L113.718 30.8875C113.756 31.8536 113.789 32.8363 113.822 33.8325Z" fill="url(#paint3_linear_29_3945)"/>
<path d="M89.1191 7.65015C89.1191 7.65015 86.7382 27.1951 90.7497 29.4166C94.7612 31.6381 113.716 30.8862 113.716 30.8862L89.1191 7.65015Z" fill="#66AFE2"/>
<path d="M95.1599 127.707C93.2113 132.086 52.126 132.374 48.1341 127.707C47.5905 127.068 47.4897 125.929 47.7462 124.436C49.3589 115.001 65.1034 91.4592 71.6486 91.4592C74.3729 91.4592 79.2139 96.9385 83.8135 103.664C90.3037 113.163 96.3022 125.144 95.1599 127.707Z" fill="#87C756"/>
<path opacity="0.05" d="M95.1599 127.707C93.2113 132.086 52.126 132.374 48.1341 127.707C47.5905 127.068 47.4897 125.929 47.7462 124.436C52.3581 124.622 56.973 124.286 61.4475 123.177C69.08 121.287 76.3001 116.983 80.6738 110.444C82.0604 108.37 83.1233 106.071 83.8135 103.664C90.3037 113.163 96.3022 125.144 95.1599 127.707Z" fill="url(#paint4_linear_29_3945)"/>
<path d="M73.1409 117.587C73.0017 118.811 70.2617 119.073 69.6824 117.729C69.2838 116.804 68.2601 105.739 68.6315 104.481C69.2506 102.385 73.7608 102.324 74.2961 104.481C74.6904 106.071 73.2116 116.965 73.1409 117.587Z" fill="white"/>
<path d="M71.4571 125.393C72.8582 125.393 73.9939 124.257 73.9939 122.856C73.9939 121.455 72.8582 120.319 71.4571 120.319C70.0561 120.319 68.9204 121.455 68.9204 122.856C68.9204 124.257 70.0561 125.393 71.4571 125.393Z" fill="white"/>
<path d="M78.0757 22.7481C78.066 22.7481 78.0566 22.748 78.0469 22.7476C64.8099 22.2921 51.3829 22.1998 38.1391 22.4738C37.6965 22.4873 37.3108 22.1232 37.3012 21.6698C37.2918 21.2163 37.6519 20.8412 38.1052 20.8318C51.3786 20.5573 64.8362 20.65 78.1033 21.1065C78.5566 21.122 78.9113 21.5021 78.8957 21.9552C78.8805 22.3989 78.516 22.7481 78.0757 22.7481Z" fill="white"/>
<path d="M38.1218 36.4428C37.6762 36.4428 37.3106 36.0862 37.3012 35.6386C37.2918 35.1852 37.6518 34.8101 38.1052 34.8007C45.206 34.6542 69.606 34.2175 85.4554 34.7629C85.9087 34.7784 86.2634 35.1585 86.2477 35.6117C86.2321 36.065 85.8463 36.4187 85.399 36.404C69.5912 35.8605 45.2294 36.2962 38.1391 36.4426C38.1334 36.4428 38.1276 36.4428 38.1218 36.4428Z" fill="white"/>
<path d="M38.1218 86.5282C37.6762 86.5282 37.3106 86.1716 37.3012 85.7241C37.2918 85.2706 37.6519 84.8955 38.1052 84.8861C51.354 84.6127 85.2881 84.3843 98.7671 84.8483C99.2204 84.8638 99.5751 85.2439 99.5595 85.6971C99.5439 86.1504 99.1579 86.5031 98.7108 86.4894C85.2588 86.0266 51.3723 86.2546 38.1391 86.528C38.1334 86.5282 38.1275 86.5282 38.1218 86.5282Z" fill="white"/>
<path d="M98.7399 101.843C98.7109 101.843 98.6816 101.841 98.6522 101.838C96.9834 101.661 92.6528 101.647 90.3262 101.64L89.4693 101.637C89.0159 101.635 88.6501 101.265 88.6524 100.812C88.6546 100.36 89.0219 99.9948 89.4733 99.9948H89.4776L90.3314 99.998C92.8528 100.006 97.0728 100.019 98.8254 100.205C99.2763 100.253 99.6032 100.657 99.5554 101.108C99.5106 101.53 99.1544 101.843 98.7399 101.843Z" fill="white"/>
<path d="M38.1219 101.881C37.6762 101.881 37.3106 101.525 37.3012 101.077C37.2918 100.624 37.6519 100.248 38.1052 100.239L38.3947 100.233C42.8147 100.142 49.4944 100.004 53.1665 100.004C53.6199 100.004 53.9876 100.371 53.9876 100.825C53.9876 101.278 53.6199 101.646 53.1665 101.646C49.5114 101.646 42.842 101.784 38.4286 101.875L38.1391 101.881C38.1334 101.881 38.1275 101.881 38.1219 101.881Z" fill="white"/>
<path d="M98.7394 52.4961C98.7298 52.4961 98.7203 52.4959 98.7107 52.4955C94.0858 52.3364 91.7247 52.2041 90.0007 52.1075C86.8281 51.9297 86.0743 51.8876 77.4065 52.0667C76.9399 52.0771 76.578 51.7159 76.5685 51.2627C76.5592 50.8093 76.9192 50.4341 77.3725 50.4248C86.1031 50.2442 86.8688 50.287 90.0927 50.4679C91.8092 50.564 94.1599 50.6958 98.7671 50.8544C99.2204 50.8699 99.5751 51.25 99.5595 51.7032C99.5442 52.1469 99.1798 52.4961 98.7394 52.4961Z" fill="white"/>
<path d="M98.7388 67.4595H98.7376C95.7434 67.4552 92.4637 67.456 89.0998 67.4563L85.4271 67.4568C84.9736 67.4568 84.606 67.0892 84.606 66.6357C84.606 66.1823 84.9736 65.8146 85.4271 65.8146L89.0995 65.8141C92.4642 65.8136 95.7447 65.8129 98.7401 65.8173C99.1935 65.818 99.5606 66.1862 99.5599 66.6396C99.5593 67.0927 99.1917 67.4595 98.7388 67.4595Z" fill="white"/>
<path d="M119.238 92.6835C119.191 92.6835 119.144 92.6805 119.096 92.6744C118.497 92.597 118.073 92.0482 118.151 91.4485C118.91 85.566 120.042 64.0047 119.858 58.9547C119.836 58.3505 120.308 57.8428 120.912 57.8206C121.518 57.7993 122.024 58.2705 122.046 58.8748C122.238 64.1274 121.11 85.6206 120.322 91.7286C120.251 92.2808 119.78 92.6835 119.238 92.6835Z" fill="#C0F2F9"/>
<path d="M18.0314 75.2377C18.0779 75.2341 18.1251 75.2334 18.173 75.2358C18.7769 75.2665 19.2416 75.7809 19.2109 76.3848C18.9099 82.3084 19.4508 103.893 20.0261 108.913C20.0949 109.514 19.6638 110.057 19.063 110.125C18.4604 110.194 17.9196 109.763 17.8507 109.162C17.2524 103.94 16.7116 82.4244 17.0241 76.2737C17.0523 75.7176 17.4907 75.2797 18.0314 75.2377Z" fill="#C0F2F9"/>
<defs>
<linearGradient id="paint0_linear_29_3945" x1="24.1419" y1="51.4604" x2="40.8429" y2="51.4604" gradientUnits="userSpaceOnUse">
<stop/>
<stop offset="1"/>
</linearGradient>
<linearGradient id="paint1_linear_29_3945" x1="48.1123" y1="63.6192" x2="78.1152" y2="63.6192" gradientUnits="userSpaceOnUse">
<stop/>
<stop offset="1"/>
</linearGradient>
<linearGradient id="paint2_linear_29_3945" x1="26.9998" y1="75.72" x2="114.057" y2="75.72" gradientUnits="userSpaceOnUse">
<stop/>
<stop offset="1"/>
</linearGradient>
<linearGradient id="paint3_linear_29_3945" x1="90.9104" y1="21.7479" x2="113.822" y2="21.7479" gradientUnits="userSpaceOnUse">
<stop/>
<stop offset="1"/>
</linearGradient>
<linearGradient id="paint4_linear_29_3945" x1="47.6118" y1="117.382" x2="95.3006" y2="117.382" gradientUnits="userSpaceOnUse">
<stop/>
<stop offset="1"/>
</linearGradient>
</defs>
</svg>
