<svg width="22" height="22" viewBox="0 0 22 22" fill="none" xmlns="http://www.w3.org/2000/svg">
<path d="M5.66496 6.28456C6.96127 6.28456 8.1374 6.80484 8.98962 7.64669L8.99132 7.64837C9.1524 7.80749 9.30241 7.97837 9.43877 8.15939L14.2455 5.41908C14.093 5.03014 14.0095 4.60837 14.0095 4.16807C14.0095 3.21171 14.4032 2.3429 15.0407 1.71398C15.6757 1.08426 16.5552 0.695312 17.5252 0.695312C18.4959 0.695312 19.3746 1.08426 20.0113 1.71314L20.0412 1.74513C20.6599 2.37146 21.0417 3.22765 21.0417 4.16883C21.0417 5.12519 20.648 5.99314 20.0105 6.62293C19.3755 7.25265 18.496 7.64159 17.526 7.64159C16.5561 7.64159 15.6766 7.25265 15.0407 6.62377L15.0109 6.59178C14.9342 6.51349 14.8609 6.43267 14.791 6.34764L9.98425 9.09053C10.2323 9.65626 10.3703 10.2792 10.3703 10.9334C10.3703 11.5884 10.2331 12.2122 9.9851 12.7779L14.7901 15.5173C14.8685 15.4214 14.952 15.3296 15.0407 15.2421C15.6773 14.6132 16.556 14.2242 17.526 14.2242C18.4959 14.2242 19.3754 14.6132 20.0122 15.2421C20.6488 15.8709 21.0426 16.7389 21.0426 17.697C21.0426 18.6559 20.6488 19.5239 20.0122 20.1528C19.3755 20.7817 18.4968 21.1707 17.526 21.1707C16.5561 21.1707 15.6765 20.7817 15.0407 20.1528C14.404 19.524 14.0103 18.656 14.0103 17.697C14.0103 17.2559 14.0938 16.8341 14.2455 16.446L9.44047 13.7057C9.30325 13.8875 9.15326 14.0593 8.99132 14.2192L8.95979 14.2479C8.11008 15.072 6.94586 15.5805 5.66481 15.5805C4.3685 15.5805 3.19237 15.0603 2.34015 14.2184L2.33845 14.2167C1.48619 13.3732 0.959473 12.2122 0.959473 10.9327C0.959473 9.65219 1.48704 8.48956 2.3393 7.64775C3.18986 6.80503 4.36686 6.28477 5.6657 6.28477L5.66496 6.28456ZM19.2409 2.47421C18.802 2.04065 18.196 1.77294 17.5261 1.77294C16.8562 1.77294 16.2502 2.04065 15.8113 2.47421C15.3724 2.90609 15.1014 3.50464 15.1014 4.16805C15.1014 4.8188 15.3622 5.40811 15.7849 5.83747L15.8113 5.86188C16.2502 6.29543 16.8562 6.56315 17.5261 6.56315C18.196 6.56315 18.802 6.29543 19.2409 5.86188C19.6798 5.43 19.9508 4.83145 19.9508 4.16804C19.9508 3.51729 19.69 2.92798 19.2673 2.49862L19.2409 2.47421ZM19.2409 16.0029C18.802 15.5693 18.196 15.3016 17.5261 15.3016C16.8562 15.3016 16.2502 15.5693 15.8113 16.0029C15.3724 16.4364 15.1014 17.035 15.1014 17.6967C15.1014 18.3584 15.3724 18.957 15.8113 19.3905C16.2502 19.8241 16.8562 20.0918 17.5261 20.0918C18.196 20.0918 18.802 19.8241 19.2409 19.3905C19.6798 18.957 19.9508 18.3584 19.9508 17.6967C19.9508 17.035 19.6798 16.4364 19.2409 16.0029ZM8.22096 8.40503C7.56897 7.76016 6.66472 7.36111 5.66496 7.36111C4.66696 7.36111 3.76268 7.761 3.10896 8.40671C2.45442 9.05158 2.05043 9.94395 2.05043 10.9315C2.05043 11.919 2.45442 12.8122 3.10726 13.4563L3.10897 13.458C3.76181 14.1028 4.66521 14.5019 5.66497 14.5019C6.65189 14.5019 7.54593 14.1129 8.19631 13.4824L8.22103 13.4563C8.87472 12.8106 9.27956 11.9174 9.27956 10.9315C9.27956 9.944 8.87557 9.05161 8.22273 8.40672L8.22096 8.40503Z" fill="#242424" fill-opacity="0.6"/>
</svg>
