<svg width="40" height="38" viewBox="0 0 40 38" fill="none" xmlns="http://www.w3.org/2000/svg">
<path d="M34 0C30.692 0 28 2.84156 28 6.33333C28 7.30816 28.2271 8.22066 28.6016 9.04644L21.1719 16.8889H11.6328C10.8043 14.4374 8.60322 12.6667 6 12.6667C2.692 12.6667 0 15.5082 0 19C0 22.4918 2.692 25.3333 6 25.3333C8.60322 25.3333 10.8043 23.5626 11.6328 21.1111H21.1719L28.6016 28.9536C28.2271 29.7793 28 30.6918 28 31.6667C28 35.1584 30.692 38 34 38C37.308 38 40 35.1584 40 31.6667C40 28.1749 37.308 25.3333 34 25.3333C33.0765 25.3333 32.212 25.5731 31.4297 25.9683L24.8281 19L31.4297 12.0317C32.212 12.4269 33.0765 12.6667 34 12.6667C37.308 12.6667 40 9.82511 40 6.33333C40 2.84156 37.308 0 34 0Z" fill="#4AB8D2"/>
</svg>
