<svg width="24" height="25" viewBox="0 0 24 25" fill="none" xmlns="http://www.w3.org/2000/svg">
<path d="M19.8296 15.8L15.2996 20.33C13.4396 22.19 10.4196 22.19 8.54962 20.33L4.15962 15.94C2.29962 14.08 2.29962 11.06 4.15962 9.19005L8.69962 4.67005C9.64962 3.72005 10.9596 3.21005 12.2996 3.28005L17.2996 3.52005C19.2996 3.61005 20.8896 5.20005 20.9896 7.19005L21.2296 12.19C21.2896 13.54 20.7796 14.85 19.8296 15.8Z" stroke="#242424" stroke-opacity="0.6" stroke-width="1.5" stroke-linecap="round" stroke-linejoin="round"/>
<path d="M14.5 12.5001C13.1193 12.5001 12 11.3808 12 10.0001C12 8.61935 13.1193 7.50006 14.5 7.50006C15.8807 7.50006 17 8.61935 17 10.0001C17 11.3808 15.8807 12.5001 14.5 12.5001Z" stroke="#242424" stroke-opacity="0.6" stroke-width="1.5" stroke-linecap="round"/>
</svg>
