<svg width="29" height="34" viewBox="0 0 29 34" fill="none" xmlns="http://www.w3.org/2000/svg">
<path d="M20.7223 29.5234C21.2223 29.5234 21.5556 29.07 21.3889 28.6167C21.2778 28.22 21.1667 27.7667 21 27.37C20.2778 25.33 18.7223 23.29 16.9445 22.1567C16.0556 21.59 15 21.1934 13.8889 21.3067C12.3889 21.4767 10.9445 22.8367 10 23.97C8.88893 25.2734 8.1667 26.9167 7.6667 28.6167C7.55559 29.07 7.88893 29.5234 8.33337 29.5234H20.7223ZM21.9445 4.76003C22.2778 4.70336 22.6112 5.04336 22.5 5.38336C21.6112 7.93336 20.2778 9.80336 18.4445 11.05C17.5556 11.6734 16.7778 12.41 16.2778 13.3734C16.1111 13.7134 15.9445 14.11 15.8889 14.5067C15.8334 14.8467 15.8889 15.2434 15.6667 15.5267C15.3889 15.8667 14.8889 16.0367 14.5 15.98C14 15.9234 13.4445 15.64 13.3334 15.13C13.2223 14.6767 13.2223 14.28 13.0556 13.8834C12.6111 12.6934 11.7223 11.7867 10.7223 11.1067C8.88893 9.86003 7.55559 7.99003 6.6667 5.44003C6.55559 5.10003 6.83337 4.76003 7.22226 4.81669C12 5.66669 17 5.66669 21.9445 4.76003Z" fill="#4AB8D2"/>
<path d="M27.6111 31.1667H27.2778C27.2778 30.6567 27.2222 30.2033 27.1667 29.6933C26.8889 27.03 26.0556 24.5367 24.7222 22.3267C23.8333 20.91 22.8333 19.72 21.6667 18.7567C21.1111 18.3033 19.8889 17.34 19.9444 16.83C19.9444 16.7167 20.1111 16.4333 20.7222 15.98C23.3889 14.1667 25.2222 11.6167 26.4444 8.16C27.0556 6.46 27.3333 4.64667 27.3889 2.77667H27.6111C28.3889 2.77667 29 2.15333 29 1.36C29 0.566667 28.3889 0 27.6111 0H1.38889C0.611111 0 0 0.623333 0 1.41667C0 2.21 0.611111 2.83333 1.38889 2.83333H1.61111C1.66667 4.70333 2 6.51667 2.55556 8.21667C3.72222 11.6733 5.61111 14.2233 8.27778 16.0367C8.88889 16.4333 9.05556 16.7733 9.05556 16.8867C9.05556 17.34 7.88889 18.3033 7.33333 18.8133C6.16667 19.7767 5.11111 20.9667 4.27778 22.3833C2.94444 24.5933 2.11111 27.03 1.83333 29.75C1.72222 30.2033 1.72222 30.7133 1.72222 31.1667H1.38889C0.611111 31.1667 0 31.79 0 32.5833C0 33.3767 0.611111 34 1.38889 34H27.6111C28.3889 34 29 33.3767 29 32.5833C29 31.79 28.3889 31.1667 27.6111 31.1667ZM4.16667 29.9767C4.38889 27.6533 5.11111 25.5567 6.27778 23.63C7 22.44 7.88889 21.42 8.83333 20.6267C10.0556 19.6633 11.5 18.4167 11.4444 16.7167C11.3889 15.6967 10.7778 14.79 9.61111 13.94C7.38889 12.4667 5.83333 10.2567 4.83333 7.36667C4.33333 5.89333 4.05556 4.36333 4 2.77667H25C24.9444 4.36333 24.6667 5.89333 24.1667 7.36667C23.1667 10.3133 21.6111 12.4667 19.3889 13.94C18.2222 14.7333 17.6111 15.6967 17.5556 16.7167C17.5 18.4167 19 19.6633 20.1667 20.6267C21.1111 21.42 22 22.44 22.7222 23.63C23.8889 25.5 24.6111 27.6533 24.8333 29.9767C24.8889 30.3733 24.8889 30.77 24.8889 31.1667H4.11111C4.11111 30.77 4.11111 30.3733 4.16667 29.9767Z" fill="#83C438"/>
<path d="M14.5556 18.0767C14.9544 18.0767 15.2778 17.7468 15.2778 17.34C15.2778 16.9331 14.9544 16.6033 14.5556 16.6033C14.1567 16.6033 13.8333 16.9331 13.8333 17.34C13.8333 17.7468 14.1567 18.0767 14.5556 18.0767Z" fill="#83C438"/>
<path d="M14.7222 19.8333C15.029 19.8333 15.2778 19.5796 15.2778 19.2667C15.2778 18.9537 15.029 18.7 14.7222 18.7C14.4154 18.7 14.1667 18.9537 14.1667 19.2667C14.1667 19.5796 14.4154 19.8333 14.7222 19.8333Z" fill="#83C438"/>
</svg>
